<mxfile host="app.diagrams.net" agent="Mozilla/5.0 (Windows NT 10.0; Win64; x64) AppleWebKit/537.36 (KHTML, like Gecko) Chrome/131.0.0.0 Safari/537.36" version="24.9.0">
  <diagram name="Page-1" id="LO6JwD13R3FNOe-pQusc">
    <mxGraphModel dx="2035" dy="654" grid="1" gridSize="10" guides="1" tooltips="1" connect="1" arrows="1" fold="1" page="1" pageScale="1" pageWidth="850" pageHeight="1100" math="0" shadow="0">
      <root>
        <mxCell id="0" />
        <mxCell id="1" parent="0" />
        <mxCell id="hjTCfGvLsPjGIj05HuFT-185" value="&lt;u&gt;Customer_ID&lt;/u&gt;" style="rounded=0;whiteSpace=wrap;html=1;labelBackgroundColor=none;" vertex="1" parent="1">
          <mxGeometry x="40" y="40" width="80" height="40" as="geometry" />
        </mxCell>
        <mxCell id="hjTCfGvLsPjGIj05HuFT-186" value="F_Name" style="rounded=0;whiteSpace=wrap;html=1;labelBackgroundColor=none;" vertex="1" parent="1">
          <mxGeometry x="120" y="40" width="70" height="40" as="geometry" />
        </mxCell>
        <mxCell id="hjTCfGvLsPjGIj05HuFT-187" value="L_Name" style="rounded=0;whiteSpace=wrap;html=1;labelBackgroundColor=none;" vertex="1" parent="1">
          <mxGeometry x="190" y="40" width="70" height="40" as="geometry" />
        </mxCell>
        <mxCell id="hjTCfGvLsPjGIj05HuFT-188" value="Phone" style="rounded=0;whiteSpace=wrap;html=1;labelBackgroundColor=none;" vertex="1" parent="1">
          <mxGeometry x="320" y="40" width="70" height="40" as="geometry" />
        </mxCell>
        <mxCell id="hjTCfGvLsPjGIj05HuFT-189" value="Email" style="rounded=0;whiteSpace=wrap;html=1;labelBackgroundColor=none;" vertex="1" parent="1">
          <mxGeometry x="390" y="40" width="70" height="40" as="geometry" />
        </mxCell>
        <mxCell id="hjTCfGvLsPjGIj05HuFT-190" value="Address" style="rounded=0;whiteSpace=wrap;html=1;labelBackgroundColor=none;" vertex="1" parent="1">
          <mxGeometry x="460" y="40" width="70" height="40" as="geometry" />
        </mxCell>
        <mxCell id="hjTCfGvLsPjGIj05HuFT-191" value="M_Init" style="rounded=0;whiteSpace=wrap;html=1;labelBackgroundColor=none;" vertex="1" parent="1">
          <mxGeometry x="260" y="40" width="60" height="40" as="geometry" />
        </mxCell>
        <mxCell id="hjTCfGvLsPjGIj05HuFT-192" value="&lt;b&gt;Customer&lt;/b&gt;" style="text;html=1;align=center;verticalAlign=middle;whiteSpace=wrap;rounded=0;" vertex="1" parent="1">
          <mxGeometry x="40" y="10" width="60" height="30" as="geometry" />
        </mxCell>
        <mxCell id="hjTCfGvLsPjGIj05HuFT-193" value="&lt;u&gt;Appointment_ID&lt;/u&gt;" style="rounded=0;whiteSpace=wrap;html=1;labelBackgroundColor=none;" vertex="1" parent="1">
          <mxGeometry x="40" y="120" width="100" height="40" as="geometry" />
        </mxCell>
        <mxCell id="hjTCfGvLsPjGIj05HuFT-194" value="&lt;b&gt;Appointment&lt;/b&gt;" style="text;html=1;align=center;verticalAlign=middle;whiteSpace=wrap;rounded=0;" vertex="1" parent="1">
          <mxGeometry x="40" y="90" width="80" height="30" as="geometry" />
        </mxCell>
        <mxCell id="hjTCfGvLsPjGIj05HuFT-195" value="Drop_Off" style="rounded=0;whiteSpace=wrap;html=1;labelBackgroundColor=none;" vertex="1" parent="1">
          <mxGeometry x="140" y="120" width="70" height="40" as="geometry" />
        </mxCell>
        <mxCell id="hjTCfGvLsPjGIj05HuFT-196" value="Pick_Up" style="rounded=0;whiteSpace=wrap;html=1;labelBackgroundColor=none;" vertex="1" parent="1">
          <mxGeometry x="210" y="120" width="60" height="40" as="geometry" />
        </mxCell>
        <mxCell id="hjTCfGvLsPjGIj05HuFT-197" value="Appointment_Made_Date" style="rounded=0;whiteSpace=wrap;html=1;labelBackgroundColor=none;" vertex="1" parent="1">
          <mxGeometry x="270" y="120" width="150" height="40" as="geometry" />
        </mxCell>
        <mxCell id="hjTCfGvLsPjGIj05HuFT-198" value="&lt;b&gt;Package&lt;/b&gt;" style="text;html=1;align=center;verticalAlign=middle;whiteSpace=wrap;rounded=0;" vertex="1" parent="1">
          <mxGeometry x="40" y="170" width="60" height="30" as="geometry" />
        </mxCell>
        <mxCell id="hjTCfGvLsPjGIj05HuFT-199" value="&lt;u&gt;Package_ID&lt;/u&gt;" style="rounded=0;whiteSpace=wrap;html=1;labelBackgroundColor=none;" vertex="1" parent="1">
          <mxGeometry x="40" y="200" width="90" height="40" as="geometry" />
        </mxCell>
        <mxCell id="hjTCfGvLsPjGIj05HuFT-200" value="Name" style="rounded=0;whiteSpace=wrap;html=1;labelBackgroundColor=none;" vertex="1" parent="1">
          <mxGeometry x="130" y="200" width="60" height="40" as="geometry" />
        </mxCell>
        <mxCell id="hjTCfGvLsPjGIj05HuFT-201" value="Time_Since_Purchase" style="rounded=0;whiteSpace=wrap;html=1;labelBackgroundColor=none;" vertex="1" parent="1">
          <mxGeometry x="190" y="200" width="130" height="40" as="geometry" />
        </mxCell>
        <mxCell id="hjTCfGvLsPjGIj05HuFT-202" value="&lt;b&gt;Task&lt;/b&gt;" style="text;html=1;align=center;verticalAlign=middle;whiteSpace=wrap;rounded=0;" vertex="1" parent="1">
          <mxGeometry x="40" y="250" width="60" height="30" as="geometry" />
        </mxCell>
        <mxCell id="hjTCfGvLsPjGIj05HuFT-203" value="&lt;u&gt;Task_ID&lt;/u&gt;" style="rounded=0;whiteSpace=wrap;html=1;labelBackgroundColor=none;" vertex="1" parent="1">
          <mxGeometry x="40" y="280" width="60" height="40" as="geometry" />
        </mxCell>
        <mxCell id="hjTCfGvLsPjGIj05HuFT-204" value="Name" style="rounded=0;whiteSpace=wrap;html=1;labelBackgroundColor=none;" vertex="1" parent="1">
          <mxGeometry x="100" y="280" width="50" height="40" as="geometry" />
        </mxCell>
        <mxCell id="hjTCfGvLsPjGIj05HuFT-205" value="Estd_Time" style="rounded=0;whiteSpace=wrap;html=1;labelBackgroundColor=none;" vertex="1" parent="1">
          <mxGeometry x="150" y="280" width="70" height="40" as="geometry" />
        </mxCell>
        <mxCell id="hjTCfGvLsPjGIj05HuFT-206" value="Estd_Labor_Cost" style="rounded=0;whiteSpace=wrap;html=1;labelBackgroundColor=none;" vertex="1" parent="1">
          <mxGeometry x="220" y="280" width="110" height="40" as="geometry" />
        </mxCell>
        <mxCell id="hjTCfGvLsPjGIj05HuFT-207" value="&lt;b&gt;Part&lt;/b&gt;" style="text;html=1;align=center;verticalAlign=middle;whiteSpace=wrap;rounded=0;" vertex="1" parent="1">
          <mxGeometry x="40" y="330" width="60" height="30" as="geometry" />
        </mxCell>
        <mxCell id="hjTCfGvLsPjGIj05HuFT-208" value="&lt;u&gt;Part_ID&lt;/u&gt;" style="rounded=0;whiteSpace=wrap;html=1;labelBackgroundColor=none;" vertex="1" parent="1">
          <mxGeometry x="40" y="360" width="60" height="40" as="geometry" />
        </mxCell>
        <mxCell id="hjTCfGvLsPjGIj05HuFT-209" value="Cost_Of_Part" style="rounded=0;whiteSpace=wrap;html=1;labelBackgroundColor=none;" vertex="1" parent="1">
          <mxGeometry x="100" y="360" width="90" height="40" as="geometry" />
        </mxCell>
        <mxCell id="hjTCfGvLsPjGIj05HuFT-210" value="Name" style="rounded=0;whiteSpace=wrap;html=1;labelBackgroundColor=none;" vertex="1" parent="1">
          <mxGeometry x="190" y="360" width="50" height="40" as="geometry" />
        </mxCell>
        <mxCell id="hjTCfGvLsPjGIj05HuFT-211" value="&lt;b&gt;Vehicle_Type&lt;/b&gt;" style="text;html=1;align=center;verticalAlign=middle;whiteSpace=wrap;rounded=0;" vertex="1" parent="1">
          <mxGeometry x="40" y="410" width="80" height="30" as="geometry" />
        </mxCell>
        <mxCell id="hjTCfGvLsPjGIj05HuFT-212" value="Vehicle_ID" style="rounded=0;whiteSpace=wrap;html=1;labelBackgroundColor=none;fontStyle=4" vertex="1" parent="1">
          <mxGeometry x="40" y="440" width="70" height="40" as="geometry" />
        </mxCell>
        <mxCell id="hjTCfGvLsPjGIj05HuFT-213" value="Make" style="rounded=0;whiteSpace=wrap;html=1;labelBackgroundColor=none;" vertex="1" parent="1">
          <mxGeometry x="110" y="440" width="60" height="40" as="geometry" />
        </mxCell>
        <mxCell id="hjTCfGvLsPjGIj05HuFT-214" value="Model" style="rounded=0;whiteSpace=wrap;html=1;labelBackgroundColor=none;" vertex="1" parent="1">
          <mxGeometry x="170" y="440" width="60" height="40" as="geometry" />
        </mxCell>
        <mxCell id="hjTCfGvLsPjGIj05HuFT-215" value="Year" style="rounded=0;whiteSpace=wrap;html=1;labelBackgroundColor=none;" vertex="1" parent="1">
          <mxGeometry x="230" y="440" width="60" height="40" as="geometry" />
        </mxCell>
        <mxCell id="hjTCfGvLsPjGIj05HuFT-216" value="Tire_Type" style="rounded=0;whiteSpace=wrap;html=1;labelBackgroundColor=none;" vertex="1" parent="1">
          <mxGeometry x="290" y="440" width="70" height="40" as="geometry" />
        </mxCell>
        <mxCell id="hjTCfGvLsPjGIj05HuFT-217" value="Engine_Type" style="rounded=0;whiteSpace=wrap;html=1;labelBackgroundColor=none;" vertex="1" parent="1">
          <mxGeometry x="360" y="440" width="80" height="40" as="geometry" />
        </mxCell>
        <mxCell id="hjTCfGvLsPjGIj05HuFT-218" value="&lt;b&gt;Car&lt;/b&gt;" style="text;html=1;align=center;verticalAlign=middle;whiteSpace=wrap;rounded=0;" vertex="1" parent="1">
          <mxGeometry x="40" y="490" width="40" height="30" as="geometry" />
        </mxCell>
        <mxCell id="hjTCfGvLsPjGIj05HuFT-219" value="&lt;u&gt;Car_ID&lt;/u&gt;" style="rounded=0;whiteSpace=wrap;html=1;labelBackgroundColor=none;" vertex="1" parent="1">
          <mxGeometry x="40" y="520" width="70" height="40" as="geometry" />
        </mxCell>
        <mxCell id="hjTCfGvLsPjGIj05HuFT-220" value="Interior" style="rounded=0;whiteSpace=wrap;html=1;labelBackgroundColor=none;" vertex="1" parent="1">
          <mxGeometry x="110" y="520" width="70" height="40" as="geometry" />
        </mxCell>
        <mxCell id="hjTCfGvLsPjGIj05HuFT-221" value="Odometer" style="rounded=0;whiteSpace=wrap;html=1;labelBackgroundColor=none;" vertex="1" parent="1">
          <mxGeometry x="180" y="520" width="70" height="40" as="geometry" />
        </mxCell>
        <mxCell id="hjTCfGvLsPjGIj05HuFT-222" value="Color" style="rounded=0;whiteSpace=wrap;html=1;labelBackgroundColor=none;" vertex="1" parent="1">
          <mxGeometry x="250" y="520" width="50" height="40" as="geometry" />
        </mxCell>
        <mxCell id="hjTCfGvLsPjGIj05HuFT-223" value="&lt;b&gt;Time_Slot&lt;/b&gt;" style="text;html=1;align=center;verticalAlign=middle;whiteSpace=wrap;rounded=0;" vertex="1" parent="1">
          <mxGeometry x="40" y="570" width="60" height="30" as="geometry" />
        </mxCell>
        <mxCell id="hjTCfGvLsPjGIj05HuFT-224" value="Time_Slot_ID" style="rounded=0;whiteSpace=wrap;html=1;labelBackgroundColor=none;" vertex="1" parent="1">
          <mxGeometry x="40" y="600" width="80" height="40" as="geometry" />
        </mxCell>
        <mxCell id="hjTCfGvLsPjGIj05HuFT-225" value="Date" style="rounded=0;whiteSpace=wrap;html=1;labelBackgroundColor=none;" vertex="1" parent="1">
          <mxGeometry x="120" y="600" width="60" height="40" as="geometry" />
        </mxCell>
        <mxCell id="hjTCfGvLsPjGIj05HuFT-226" value="Start_Time" style="rounded=0;whiteSpace=wrap;html=1;labelBackgroundColor=none;" vertex="1" parent="1">
          <mxGeometry x="180" y="600" width="70" height="40" as="geometry" />
        </mxCell>
        <mxCell id="hjTCfGvLsPjGIj05HuFT-227" value="End_Time" style="rounded=0;whiteSpace=wrap;html=1;labelBackgroundColor=none;" vertex="1" parent="1">
          <mxGeometry x="250" y="600" width="70" height="40" as="geometry" />
        </mxCell>
        <mxCell id="hjTCfGvLsPjGIj05HuFT-228" value="&lt;b&gt;Customer_Cars&lt;/b&gt;" style="text;html=1;align=center;verticalAlign=middle;whiteSpace=wrap;rounded=0;" vertex="1" parent="1">
          <mxGeometry x="40" y="650" width="100" height="30" as="geometry" />
        </mxCell>
        <mxCell id="hjTCfGvLsPjGIj05HuFT-229" value="&lt;b&gt;Cars_In_Inventory&lt;/b&gt;" style="text;html=1;align=center;verticalAlign=middle;whiteSpace=wrap;rounded=0;" vertex="1" parent="1">
          <mxGeometry x="40" y="730" width="110" height="30" as="geometry" />
        </mxCell>
        <mxCell id="hjTCfGvLsPjGIj05HuFT-230" value="License_Plate_State" style="rounded=0;whiteSpace=wrap;html=1;labelBackgroundColor=none;" vertex="1" parent="1">
          <mxGeometry x="110" y="680" width="130" height="40" as="geometry" />
        </mxCell>
        <mxCell id="hjTCfGvLsPjGIj05HuFT-231" value="Cost" style="rounded=0;whiteSpace=wrap;html=1;labelBackgroundColor=none;" vertex="1" parent="1">
          <mxGeometry x="110" y="760" width="50" height="40" as="geometry" />
        </mxCell>
        <mxCell id="hjTCfGvLsPjGIj05HuFT-232" value="License_Plate" style="rounded=0;whiteSpace=wrap;html=1;labelBackgroundColor=none;" vertex="1" parent="1">
          <mxGeometry x="240" y="680" width="100" height="40" as="geometry" />
        </mxCell>
        <mxCell id="hjTCfGvLsPjGIj05HuFT-233" value="&lt;b&gt;Test&lt;/b&gt;" style="text;html=1;align=center;verticalAlign=middle;whiteSpace=wrap;rounded=0;" vertex="1" parent="1">
          <mxGeometry x="40" y="810" width="40" height="30" as="geometry" />
        </mxCell>
        <mxCell id="hjTCfGvLsPjGIj05HuFT-234" value="&lt;b&gt;Part_Replacement&lt;/b&gt;" style="text;html=1;align=center;verticalAlign=middle;whiteSpace=wrap;rounded=0;" vertex="1" parent="1">
          <mxGeometry x="40" y="890" width="120" height="30" as="geometry" />
        </mxCell>
        <mxCell id="hjTCfGvLsPjGIj05HuFT-235" value="&lt;b&gt;Purchase&lt;/b&gt;" style="text;html=1;align=center;verticalAlign=middle;whiteSpace=wrap;rounded=0;" vertex="1" parent="1">
          <mxGeometry x="40" y="970" width="70" height="30" as="geometry" />
        </mxCell>
        <mxCell id="hjTCfGvLsPjGIj05HuFT-236" value="&lt;u&gt;Purchase_ID&lt;/u&gt;" style="rounded=0;whiteSpace=wrap;html=1;labelBackgroundColor=none;" vertex="1" parent="1">
          <mxGeometry x="40" y="1000" width="80" height="40" as="geometry" />
        </mxCell>
        <mxCell id="hjTCfGvLsPjGIj05HuFT-238" value="Date_Of_Purchase" style="rounded=0;whiteSpace=wrap;html=1;labelBackgroundColor=none;" vertex="1" parent="1">
          <mxGeometry x="120" y="1000" width="120" height="40" as="geometry" />
        </mxCell>
        <mxCell id="hjTCfGvLsPjGIj05HuFT-240" style="edgeStyle=orthogonalEdgeStyle;rounded=0;orthogonalLoop=1;jettySize=auto;html=1;entryX=0.5;entryY=1;entryDx=0;entryDy=0;" edge="1" parent="1" source="hjTCfGvLsPjGIj05HuFT-239" target="hjTCfGvLsPjGIj05HuFT-219">
          <mxGeometry relative="1" as="geometry">
            <Array as="points">
              <mxPoint x="350" y="1020" />
              <mxPoint x="350" y="570" />
              <mxPoint x="75" y="570" />
            </Array>
          </mxGeometry>
        </mxCell>
        <mxCell id="hjTCfGvLsPjGIj05HuFT-239" value="Car_ID" style="rounded=0;whiteSpace=wrap;html=1;labelBackgroundColor=none;" vertex="1" parent="1">
          <mxGeometry x="240" y="1000" width="70" height="40" as="geometry" />
        </mxCell>
        <mxCell id="hjTCfGvLsPjGIj05HuFT-241" style="edgeStyle=orthogonalEdgeStyle;rounded=0;orthogonalLoop=1;jettySize=auto;html=1;entryX=0;entryY=0.5;entryDx=0;entryDy=0;" edge="1" parent="1">
          <mxGeometry relative="1" as="geometry">
            <mxPoint x="40" y="265" as="sourcePoint" />
            <mxPoint x="40" y="825" as="targetPoint" />
            <Array as="points">
              <mxPoint y="265" />
              <mxPoint y="825" />
            </Array>
          </mxGeometry>
        </mxCell>
        <mxCell id="hjTCfGvLsPjGIj05HuFT-242" style="edgeStyle=orthogonalEdgeStyle;rounded=0;orthogonalLoop=1;jettySize=auto;html=1;entryX=0;entryY=0.5;entryDx=0;entryDy=0;" edge="1" parent="1">
          <mxGeometry relative="1" as="geometry">
            <mxPoint x="40" y="265" as="sourcePoint" />
            <mxPoint x="40" y="905" as="targetPoint" />
            <Array as="points">
              <mxPoint x="-10" y="265" />
              <mxPoint x="-10" y="905" />
            </Array>
          </mxGeometry>
        </mxCell>
        <mxCell id="hjTCfGvLsPjGIj05HuFT-243" style="edgeStyle=orthogonalEdgeStyle;rounded=0;orthogonalLoop=1;jettySize=auto;html=1;entryX=0;entryY=0.5;entryDx=0;entryDy=0;" edge="1" parent="1">
          <mxGeometry relative="1" as="geometry">
            <mxPoint x="40" y="505" as="sourcePoint" />
            <mxPoint x="40" y="665" as="targetPoint" />
            <Array as="points">
              <mxPoint x="20" y="505" />
              <mxPoint x="20" y="665" />
            </Array>
          </mxGeometry>
        </mxCell>
        <mxCell id="hjTCfGvLsPjGIj05HuFT-244" style="edgeStyle=orthogonalEdgeStyle;rounded=0;orthogonalLoop=1;jettySize=auto;html=1;entryX=0;entryY=0.5;entryDx=0;entryDy=0;" edge="1" parent="1">
          <mxGeometry relative="1" as="geometry">
            <mxPoint x="40" y="505" as="sourcePoint" />
            <mxPoint x="40" y="745" as="targetPoint" />
            <Array as="points">
              <mxPoint x="10" y="505" />
              <mxPoint x="10" y="745" />
            </Array>
          </mxGeometry>
        </mxCell>
        <mxCell id="hjTCfGvLsPjGIj05HuFT-246" value="&lt;u&gt;Car_ID&lt;/u&gt;" style="rounded=0;whiteSpace=wrap;html=1;labelBackgroundColor=none;" vertex="1" parent="1">
          <mxGeometry x="40" y="680" width="70" height="40" as="geometry" />
        </mxCell>
        <mxCell id="hjTCfGvLsPjGIj05HuFT-247" value="&lt;u&gt;Car_ID&lt;/u&gt;" style="rounded=0;whiteSpace=wrap;html=1;labelBackgroundColor=none;" vertex="1" parent="1">
          <mxGeometry x="40" y="760" width="70" height="40" as="geometry" />
        </mxCell>
        <mxCell id="hjTCfGvLsPjGIj05HuFT-248" value="&lt;u&gt;Task_ID&lt;/u&gt;" style="rounded=0;whiteSpace=wrap;html=1;labelBackgroundColor=none;" vertex="1" parent="1">
          <mxGeometry x="40" y="840" width="60" height="40" as="geometry" />
        </mxCell>
        <mxCell id="hjTCfGvLsPjGIj05HuFT-249" value="&lt;u&gt;Task_ID&lt;/u&gt;" style="rounded=0;whiteSpace=wrap;html=1;labelBackgroundColor=none;" vertex="1" parent="1">
          <mxGeometry x="40" y="920" width="60" height="40" as="geometry" />
        </mxCell>
      </root>
    </mxGraphModel>
  </diagram>
</mxfile>
